<?xml version="1.0" encoding="utf-8"?>
<!-- Generator: Adobe Illustrator 19.0.0, SVG Export Plug-In . SVG Version: 6.00 Build 0)  -->
<svg version="1.1"
	 id="svg2" xmlns:dc="http://purl.org/dc/elements/1.1/" xmlns:cc="http://creativecommons.org/ns#" xmlns:rdf="http://www.w3.org/1999/02/22-rdf-syntax-ns#" xmlns:svg="http://www.w3.org/2000/svg" xmlns:sodipodi="http://sodipodi.sourceforge.net/DTD/sodipodi-0.dtd" xmlns:inkscape="http://www.inkscape.org/namespaces/inkscape" inkscape:label="PozadĂ­" inkscape:version="0.91 r13725" sodipodi:docname="bastet.svg"
	 xmlns="http://www.w3.org/2000/svg" xmlns:xlink="http://www.w3.org/1999/xlink" x="0px" y="0px" viewBox="-97 220.9 400 400"
	 style="enable-background:new -97 220.9 400 400;" xml:space="preserve">
<style type="text/css">
	.st0{fill:#666666;}
	.st1{fill:#FFFFFF;}
	.st2{fill:#FF0303;}
</style>
<circle class="st0" cx="103" cy="420.9" r="200"/>
<path class="st1" d="M72.4,353.4c0,0,8.4-22.4,3.5-35.1c-3.2-8.4-22.3-25.4-29.4-53.7c-1.4-5.6-6.2,28.1-9.3,29.4
	c-8.9,3.6-21.2,12.3-21.9,21.4c-0.3,3.3-14.3,9.2-13.3,15.4s16.5,11.4,26.2,11.9s7.8,24.1,7.8,24.1L72.4,353.4z"/>
<path class="st2" d="M76.2,304.1"/>
<polygon class="st1" points="56.5,283.2 59.7,265.9 70,306.4 "/>
<path class="st1" d="M21,405.6c1.1,24.9,37.1,50.3,37.1,50.3l3.9,83.8c0,0-18.6,4.9-19.7,9.2s30.5,3.2,30.5,3.2L84.4,470l24.3,70
	c0,0-22.5,3.7-23.8,7.8c-1,3.4-0.8,4.4-0.8,4.4s121.7,4.4,137.3-8.4c8.9-7.3,13.7-18.8,14.3-36.1c0.5-17.3,4.3-33,8.6-34.6
	c4.3-1.6,7-14.1-5.4-8.6c-12.4,5.4-3.2,69.2-40,72.4s-44.3,1.1-44.3,1.1s10.8-35.1,11.9-52.4s-1.6-48.1-26.5-66.5
	s-35.3-24.2-45.4-31.6c-7.2-5.3-11.2-18-21.9-25.1l-37.6,12.7C35.2,375.1,20.2,387.3,21,405.6z"/>
<polygon class="st0" points="230,481.6 242.5,484.1 240.5,498.1 225.2,494.6 "/>
<polygon class="st0" points="57.2,516.9 82.2,518.6 80.8,531 57.2,531.6 "/>
</svg>
