<?xml version="1.0" encoding="utf-8"?>
<!-- Generator: Adobe Illustrator 19.0.0, SVG Export Plug-In . SVG Version: 6.00 Build 0)  -->
<svg version="1.1"
	 id="svg2" xmlns:dc="http://purl.org/dc/elements/1.1/" xmlns:cc="http://creativecommons.org/ns#" xmlns:rdf="http://www.w3.org/1999/02/22-rdf-syntax-ns#" xmlns:svg="http://www.w3.org/2000/svg" xmlns:sodipodi="http://sodipodi.sourceforge.net/DTD/sodipodi-0.dtd" xmlns:inkscape="http://www.inkscape.org/namespaces/inkscape" inkscape:label="PozadĂ­" inkscape:version="0.91 r13725" sodipodi:docname="bastet.svg"
	 xmlns="http://www.w3.org/2000/svg" xmlns:xlink="http://www.w3.org/1999/xlink" x="0px" y="0px" viewBox="-97 220.9 400 400"
	 style="enable-background:new -97 220.9 400 400;" xml:space="preserve">
<style type="text/css">
	.st0{fill:#666666;fill-opacity:0.9412;stroke:#000000;stroke-width:5.4922;stroke-linecap:round;stroke-linejoin:round;}
</style>
<g id="layer1" transform="translate(0,-652.36218)" inkscape:label="Vrstva 1" inkscape:groupmode="layer">
	<g id="g3050" transform="translate(-12.121831,517.1981)">
		<path id="path4151" inkscape:connector-curvature="0" class="st0" d="M-11.8,716.1l247.8,1.5l-40.2-20.7l1.6-126.3l-41.8-0.8
			l3.2-128.5c0,0,12.4-10.2,12.4-14.1c0-3.8-48.9-3.5-48.9-3.5s-11.8,10.3-11.4,15.1c0.4,4.8,5.2,17,9.5,17s23.1,1.1,24.7,6.1
			c1.6,5,4.2,23.1,1.4,28.9c-2.8,5.7-43.2,33.9-43.2,44.2c0,10.3,16.1,18.4,14.5,34.8c-1.6,16.5-11.3,59.7-11.3,59.7
			s-57.1-57-76-56.6c-18.9,0.4-23.3,10.7-23.3,10.7l31,111.6L-11.8,716.1z"/>
		<path id="path4153" inkscape:connector-curvature="0" sodipodi:nodetypes="ccacccssc" class="st0" d="M126.2,416
			c10.7,1.4,38.2-1.1,46.8,3c3.2,1.6,6.9,4.3,7.1,7.7c0.5,7.6-13.4,18.9-13.4,18.9l-3.4,116.5l56.9,0.5c0,0,10.7-108.1-9.9-148.5
			c-8.9-17.3-12.9-23.3-41-23.3S126.2,416,126.2,416L126.2,416z"/>
	</g>
</g>
</svg>
