<?xml version="1.0" encoding="utf-8"?>
<!-- Generator: Adobe Illustrator 19.0.0, SVG Export Plug-In . SVG Version: 6.00 Build 0)  -->
<svg version="1.1"
	 id="svg2" xmlns:dc="http://purl.org/dc/elements/1.1/" xmlns:cc="http://creativecommons.org/ns#" xmlns:rdf="http://www.w3.org/1999/02/22-rdf-syntax-ns#" xmlns:svg="http://www.w3.org/2000/svg" xmlns:sodipodi="http://sodipodi.sourceforge.net/DTD/sodipodi-0.dtd" xmlns:inkscape="http://www.inkscape.org/namespaces/inkscape" inkscape:label="PozadĂ­" inkscape:version="0.91 r13725" sodipodi:docname="serapis.svg"
	 xmlns="http://www.w3.org/2000/svg" xmlns:xlink="http://www.w3.org/1999/xlink" x="0px" y="0px" viewBox="-97 220.9 400 400"
	 style="enable-background:new -97 220.9 400 400;" xml:space="preserve">
<style type="text/css">
	.st0{fill:#666666;}
	.st1{fill:#FFFFFF;}
</style>
<circle class="st0" cx="103" cy="420.9" r="200"/>
<path class="st1" d="M40.9,285.3c0,0,1.5,9.9,5.4,11.5c5.9,2.4,19.7,88.4,19.7,88.4s15,5.5,37.7,5.2c21.3-0.3,40.8-5.5,40.8-5.5
	s6.5-84.3,11.5-89.2c4.7-4.5,5.9-4,5.9-10.6c0-2-32.6-7.1-58.8-7.1C64.9,277.9,40.9,285.3,40.9,285.3z"/>
<path class="st1" d="M74.7,568.5c3.9,0.1,32.6,0,32.6,0c-2.5-8.5-2.1-14.9-1.3-19.1c1.3-7-6.4-7-12-14.4c-2.9-3.9-6.6-20.9-5.5-24
	c8.1,8.1,5.5,13.5,11.2,21.4c6,8.4,16.1,8.6,20.1,23.9c1.3,4.9,9.3,0.5,12.5,3.5c1.9,1.9,9.3,3.3,15-1c0.6-0.4,9.9-3.5,13.4-13.8
	c3.3-9.6-7.1-10.1,1.5-20.8c6.1-7.6,4.5-4.1,2-11.7c-1.6-4.8,0.1-7.5,0.2-7.6c4-5.2-4-26.8,2.8-33.7c4.1-4.2,10.8-0.2,13.3-3.7
	c2.1-2.9,0.6-10.3-16.7-30.7c-3.1-5.5-5.8-17-9.6-22.8c-2.3-3.6-12.2-7.3-14.5-5.8c9.4-6.3,15.9,0.7,17.1-0.6
	c1.3-1.4,1.3-6.5-0.6-8.5c-3.3-3.4-10.9-11.5-31.4-7.7c-9,1.7-20.3,3.1-26.3,3c-6.8-0.1-18.5-1.3-25.7-1.8
	c-7.2-0.5-4.5,7.8-7.3,10.6c-3.1,0.7-9.1,2.5-14.7,7.7c-8.7,8-10,17.8-8,27.4c1.5,7-12.2,24.1-13.5,28.3c-3,8.2,2,14.7,0.7,23.7
	c0.3,6-12.4,11.8-13.8,15.5c-2.4,6.2-1.3,19.9-3,27.4c-1.2,5.3-3.2,12.8-6.7,22c10.9,0.7,21.8,1.5,32.7,2.2"/>
<path class="st1" d="M196.3,445.1"/>
</svg>
